<?xml version="1.0" encoding="utf-8"?>
<!-- Generator: Adobe Illustrator 16.2.0, SVG Export Plug-In . SVG Version: 6.00 Build 0)  -->
<!DOCTYPE svg PUBLIC "-//W3C//DTD SVG 1.1//EN" "http://www.w3.org/Graphics/SVG/1.1/DTD/svg11.dtd">
<svg version="1.1" xmlns="http://www.w3.org/2000/svg" xmlns:xlink="http://www.w3.org/1999/xlink" x="0px" y="0px"
	 width="1926.156px" height="815.854px" viewBox="0 -259.5 1926.156 815.854" enable-background="new 0 -259.5 1926.156 815.854"
	 xml:space="preserve">
<g id="Layer_3">
	<g id="Layer_1_1_">
		
			<linearGradient id="SVGID_1_" gradientUnits="userSpaceOnUse" x1="-154.1797" y1="511.6338" x2="-154.1797" y2="-365.1515" gradientTransform="matrix(1 0 0 1 598 75)">
			<stop  offset="0" style="stop-color:#FFFFFF"/>
			<stop  offset="0.2174" style="stop-color:#E4E5E6"/>
			<stop  offset="0.6594" style="stop-color:#E3E4E5"/>
			<stop  offset="1" style="stop-color:#FFFFFF"/>
			<stop  offset="1" style="stop-color:#E1E1E1"/>
		</linearGradient>
		<rect y="-257.5" fill="url(#SVGID_1_)" width="887.641" height="813.854"/>
		
			<linearGradient id="SVGID_2_" gradientUnits="userSpaceOnUse" x1="-516.0127" y1="481.4512" x2="-515.0431" y2="-337.6663" gradientTransform="matrix(1 0 0 1 598 75)">
			<stop  offset="0.1295" style="stop-color:#E3E4E5"/>
			<stop  offset="0.4686" style="stop-color:#BEBEBE"/>
			<stop  offset="1" style="stop-color:#FFFFFF"/>
			<stop  offset="1" style="stop-color:#E1E1E1"/>
		</linearGradient>
		<rect y="-257.5" fill="url(#SVGID_2_)" width="164.939" height="813.854"/>
		
			<linearGradient id="SVGID_3_" gradientUnits="userSpaceOnUse" x1="-198.9585" y1="481.4482" x2="-197.9889" y2="-337.662" gradientTransform="matrix(1 0 0 1 598 75)">
			<stop  offset="0.1295" style="stop-color:#E3E4E5"/>
			<stop  offset="0.4686" style="stop-color:#BEBEBE"/>
			<stop  offset="1" style="stop-color:#FFFFFF"/>
			<stop  offset="1" style="stop-color:#E1E1E1"/>
		</linearGradient>
		<rect x="320.52" y="-257.5" fill="url(#SVGID_3_)" width="158.006" height="813.854"/>
		
			<linearGradient id="SVGID_4_" gradientUnits="userSpaceOnUse" x1="79.7104" y1="481.4229" x2="80.6799" y2="-337.6363" gradientTransform="matrix(1 0 0 1 598 75)">
			<stop  offset="0.1295" style="stop-color:#E3E4E5"/>
			<stop  offset="0.4686" style="stop-color:#BEBEBE"/>
			<stop  offset="1" style="stop-color:#FFFFFF"/>
			<stop  offset="1" style="stop-color:#E1E1E1"/>
		</linearGradient>
		<rect x="620.625" y="-257.5" fill="url(#SVGID_4_)" width="115.134" height="813.854"/>
	</g>
	<g id="Layer_2_1_">
	</g>
	<g id="Layer_1_2_">
		
			<linearGradient id="SVGID_5_" gradientUnits="userSpaceOnUse" x1="729.335" y1="511.6338" x2="729.3349" y2="-365.1515" gradientTransform="matrix(1 0 0 1 598 75)">
			<stop  offset="0" style="stop-color:#FFFFFF"/>
			<stop  offset="0.2174" style="stop-color:#E4E5E6"/>
			<stop  offset="0.6594" style="stop-color:#E3E4E5"/>
			<stop  offset="1" style="stop-color:#FFFFFF"/>
			<stop  offset="1" style="stop-color:#E1E1E1"/>
		</linearGradient>
		<rect x="883.514" y="-257.5" fill="url(#SVGID_5_)" width="887.642" height="813.854"/>
		
			<linearGradient id="SVGID_6_" gradientUnits="userSpaceOnUse" x1="367.502" y1="481.4512" x2="368.4716" y2="-337.6663" gradientTransform="matrix(1 0 0 1 598 75)">
			<stop  offset="0.1295" style="stop-color:#E3E4E5"/>
			<stop  offset="0.4686" style="stop-color:#BEBEBE"/>
			<stop  offset="1" style="stop-color:#FFFFFF"/>
			<stop  offset="1" style="stop-color:#E1E1E1"/>
		</linearGradient>
		<rect x="883.514" y="-257.5" fill="url(#SVGID_6_)" width="164.939" height="813.854"/>
		
			<linearGradient id="SVGID_7_" gradientUnits="userSpaceOnUse" x1="684.5562" y1="481.4482" x2="685.5258" y2="-337.662" gradientTransform="matrix(1 0 0 1 598 75)">
			<stop  offset="0.1295" style="stop-color:#E3E4E5"/>
			<stop  offset="0.4686" style="stop-color:#BEBEBE"/>
			<stop  offset="1" style="stop-color:#FFFFFF"/>
			<stop  offset="1" style="stop-color:#E1E1E1"/>
		</linearGradient>
		<rect x="1204.035" y="-257.5" fill="url(#SVGID_7_)" width="158.007" height="813.854"/>
		
			<linearGradient id="SVGID_8_" gradientUnits="userSpaceOnUse" x1="963.2261" y1="481.4219" x2="964.1955" y2="-337.6373" gradientTransform="matrix(1 0 0 1 598 75)">
			<stop  offset="0.1295" style="stop-color:#E3E4E5"/>
			<stop  offset="0.4686" style="stop-color:#BEBEBE"/>
			<stop  offset="1" style="stop-color:#FFFFFF"/>
			<stop  offset="1" style="stop-color:#E1E1E1"/>
		</linearGradient>
		<rect x="1504.14" y="-257.5" fill="url(#SVGID_8_)" width="115.134" height="813.854"/>
	</g>
	<g id="Layer_2_2_">
	</g>
	<g id="Layer_1_3_">
		
			<linearGradient id="SVGID_9_" gradientUnits="userSpaceOnUse" x1="1242.5015" y1="481.4521" x2="1243.4711" y2="-337.6658" gradientTransform="matrix(1 0 0 1 598 75)">
			<stop  offset="0.1295" style="stop-color:#E3E4E5"/>
			<stop  offset="0.4686" style="stop-color:#BEBEBE"/>
			<stop  offset="1" style="stop-color:#FFFFFF"/>
			<stop  offset="1" style="stop-color:#E1E1E1"/>
		</linearGradient>
		<rect x="1758.514" y="-257.5" fill="url(#SVGID_9_)" width="164.939" height="813.854"/>
	</g>
	<g id="Layer_2_3_">
	</g>
</g>
<g id="Layer_1">
	<g id="academic_x5F_graph">
		
			<linearGradient id="SVGID_10_" gradientUnits="userSpaceOnUse" x1="-555.5498" y1="315.9668" x2="-555.5498" y2="233.0504" gradientTransform="matrix(1 0 0 -1 604 509)">
			<stop  offset="0" style="stop-color:#21409A"/>
			<stop  offset="0.6313" style="stop-color:#0090D6"/>
		</linearGradient>
		<polygon fill="url(#SVGID_10_)" points="0,212.05 0,260.59 96.9,237.95 96.9,206.616 6.25,206.616 		"/>
		
			<linearGradient id="SVGID_11_" gradientUnits="userSpaceOnUse" x1="-326.9248" y1="321.9443" x2="-326.9248" y2="208.5218" gradientTransform="matrix(1 0 0 -1 604 509)">
			<stop  offset="0" style="stop-color:#27AAE1"/>
			<stop  offset="0.6803" style="stop-color:#D7F0FC"/>
		</linearGradient>
		<polygon fill="url(#SVGID_11_)" points="96.9,237.95 193.3,251.172 309.25,257.691 386.1,275.08 434.05,283.773 457.25,203.355 
			96.9,197.561 		"/>
		
			<linearGradient id="SVGID_12_" gradientUnits="userSpaceOnUse" x1="580.6221" y1="163.2583" x2="580.6221" y2="323.0506" gradientTransform="matrix(1 0 0 -1 604 509)">
			<stop  offset="0.1112" style="stop-color:#E7F6FD"/>
			<stop  offset="1" style="stop-color:#00AEEF"/>
		</linearGradient>
		<polygon fill="url(#SVGID_12_)" points="443.088,252.443 570.25,289.568 1913.792,313.174 1926.156,209.068 457.25,203.355 		"/>
		
			<linearGradient id="SVGID_13_" gradientUnits="userSpaceOnUse" x1="746.0527" y1="343.0879" x2="745.7728" y2="203.7492" gradientTransform="matrix(1 0 0 -1 604 509)">
			<stop  offset="0" style="stop-color:#0C4B7D"/>
			<stop  offset="0.7421" style="stop-color:#60ACDD"/>
			<stop  offset="1" style="stop-color:#65B4E4"/>
		</linearGradient>
		<path fill="url(#SVGID_13_)" d="M1253.701,203.355l23.549,63.754c0,0,47,7.246,50,7.971s93,9.418,93,9.418l26-78.244
			L1253.701,203.355z"/>
		
			<linearGradient id="SVGID_14_" gradientUnits="userSpaceOnUse" x1="1125.6704" y1="329.1523" x2="1125.6704" y2="149.0716" gradientTransform="matrix(1 0 0 -1 604 509)">
			<stop  offset="0" style="stop-color:#0C4B7D"/>
			<stop  offset="0.7421" style="stop-color:#60ACDD"/>
			<stop  offset="1" style="stop-color:#65B4E4"/>
		</linearGradient>
		<polygon fill="url(#SVGID_14_)" points="1567.675,203.355 1596.66,258.266 1639.3,271.109 1687.25,298.107 1721.564,328.604 
			1819.556,337.604 1860.96,347.604 1891.667,203.355 		"/>
	</g>
	<g id="work_x5F_graph">
		
			<linearGradient id="SVGID_15_" gradientUnits="userSpaceOnUse" x1="-261.5835" y1="478.9434" x2="-261.7461" y2="352.6818" gradientTransform="matrix(1 0 0 -1 604 509)">
			<stop  offset="0" style="stop-color:#D267A8"/>
			<stop  offset="1" style="stop-color:#511E62"/>
		</linearGradient>
		<polygon fill="url(#SVGID_15_)" points="87.25,152.28 116.25,131.59 213.25,120.765 434.05,85.989 545.25,30.928 597.25,166.407 
					"/>
		
			<linearGradient id="SVGID_16_" gradientUnits="userSpaceOnUse" x1="414.0166" y1="520.9971" x2="413.8467" y2="324.3293" gradientTransform="matrix(1 0 0 -1 604 509)">
			<stop  offset="0.2624" style="stop-color:#BBD86B"/>
			<stop  offset="0.7786" style="stop-color:#3EB549"/>
		</linearGradient>
		<polygon fill="url(#SVGID_16_)" points="589.742,146.846 723.25,112.071 759.25,119.811 853.25,59.908 916.05,49.765 
			1012.451,49.765 1133.25,16.438 1176.25,0.5 1329.25,17.888 1398.05,71.5 1446,152.28 1446,166.407 597.25,166.407 		"/>
		
			<linearGradient id="SVGID_17_" gradientUnits="userSpaceOnUse" x1="1056.9907" y1="495.251" x2="1061.5684" y2="329.1554" gradientTransform="matrix(1 0 0 -1 604 509)">
			<stop  offset="0" style="stop-color:#D67B39"/>
			<stop  offset="1" style="stop-color:#6F000A"/>
		</linearGradient>
		<polygon fill="url(#SVGID_17_)" points="1437.558,138.056 1464.75,83.454 1562.25,30.928 1657.75,100.479 1735.701,116.417 
			1860.443,118.067 1891.667,152.28 1446,152.28 		"/>
	</g>
	<g id="border">
		<rect y="136.5" fill="#BCBEC0" width="1928.5" height="90"/>
	</g>
	<g id="main_x5F_timeline">
		<rect y="144" fill="#414042" width="96.9" height="75"/>
		<rect x="96.4" y="144" fill="#58595B" width="96.9" height="75"/>
		<rect x="192.8" y="144" fill="#414042" width="96.9" height="75"/>
		<rect x="289.2" y="144" fill="#58595B" width="96.9" height="75"/>
		<rect x="385.6" y="144" fill="#414042" width="96.9" height="75"/>
		<rect x="482" y="144" fill="#58595B" width="96.9" height="75"/>
		<rect x="578.4" y="144" fill="#414042" width="96.899" height="75"/>
		<rect x="674.8" y="144" fill="#58595B" width="96.9" height="75"/>
		<rect x="771.2" y="144" fill="#414042" width="96.899" height="75"/>
		<rect x="867.6" y="144" fill="#58595B" width="96.9" height="75"/>
		<rect x="964" y="144" fill="#414042" width="96.9" height="75"/>
		<rect x="1060.4" y="144" fill="#58595B" width="96.898" height="75"/>
		<rect x="1156.8" y="144" fill="#414042" width="96.9" height="75"/>
		<rect x="1253.201" y="144" fill="#58595B" width="96.898" height="75"/>
		<rect x="1349.599" y="144" fill="#414042" width="96.9" height="75"/>
		<rect x="1446" y="144" fill="#58595B" width="96.9" height="75"/>
		<rect x="1542.4" y="144" fill="#414042" width="96.898" height="75"/>
		<rect x="1638.8" y="144" fill="#58595B" width="96.9" height="75"/>
		<rect x="1735.201" y="144" fill="#414042" width="96.898" height="75"/>
		<rect x="1831.599" y="144" fill="#58595B" width="96.9" height="75"/>
	</g>
	<g id="text">
		<text transform="matrix(1 0 0 1 19.75 195.5)" fill="#E6E7E8" font-family="'Verdana'" font-size="36">‘94</text>
		<text transform="matrix(1 0 0 1 116.25 195.5)" fill="#E6E7E8" font-family="'Verdana'" font-size="36">‘95</text>
		<text transform="matrix(1 0 0 1 213.25 195.5)" fill="#E6E7E8" font-family="'Verdana'" font-size="36">‘96</text>
		<text transform="matrix(1 0 0 1 309.25 195.5)" fill="#E6E7E8" font-family="'Verdana'" font-size="36">‘97</text>
		<text transform="matrix(1 0 0 1 405.25 195.5)" fill="#E6E7E8" font-family="'Verdana'" font-size="36">‘98</text>
		<text transform="matrix(1 0 0 1 501.25 195.5)" fill="#E6E7E8" font-family="'Verdana'" font-size="36">‘99</text>
		<text transform="matrix(1 0 0 1 597.25 195.5)" fill="#E6E7E8" font-family="'Verdana'" font-size="36">‘00</text>
		<text transform="matrix(1 0 0 1 693.75 195.5)" fill="#E6E7E8" font-family="'Verdana'" font-size="36">‘01</text>
		<text transform="matrix(1 0 0 1 790.75 195.5)" fill="#E6E7E8" font-family="'Verdana'" font-size="36">‘02</text>
		<text transform="matrix(1 0 0 1 887.25 195.5)" fill="#E6E7E8" font-family="'Verdana'" font-size="36">‘03</text>
		<text transform="matrix(1 0 0 1 983.2495 195.5)" fill="#E6E7E8" font-family="'Verdana'" font-size="36">‘04</text>
		<text transform="matrix(1 0 0 1 1079.7495 195.5)" fill="#E6E7E8" font-family="'Verdana'" font-size="36">‘05</text>
		<text transform="matrix(1 0 0 1 1176.2495 195.5)" fill="#E6E7E8" font-family="'Verdana'" font-size="36">‘06</text>
		<text transform="matrix(1 0 0 1 1272.7495 195.5)" fill="#E6E7E8" font-family="'Verdana'" font-size="36">‘07</text>
		<text transform="matrix(1 0 0 1 1369.2495 195.5)" fill="#E6E7E8" font-family="'Verdana'" font-size="36">‘08</text>
		<text transform="matrix(1 0 0 1 1464.7495 195.5)" fill="#E6E7E8" font-family="'Verdana'" font-size="36">‘09</text>
		<text transform="matrix(1 0 0 1 1562.2495 195.5)" fill="#E6E7E8" font-family="'Verdana'" font-size="36">‘10</text>
		<text transform="matrix(1 0 0 1 1657.7495 195.5)" fill="#E6E7E8" font-family="'Verdana'" font-size="36">‘11</text>
		<text transform="matrix(1 0 0 1 1755.2495 195.5)" fill="#E6E7E8" font-family="'Verdana'" font-size="36">‘12</text>
		<text transform="matrix(1 0 0 1 1852.2495 195.5)" fill="#E6E7E8" font-family="'Verdana'" font-size="36">‘13</text>
	</g>
</g>
<g id="Layer_2">
	
		<line fill="none" stroke="#4D4D4D" stroke-width="3" stroke-miterlimit="10" x1="359.578" y1="116.604" x2="225.265" y2="-32.915"/>
	
		<line fill="none" stroke="#4D4D4D" stroke-width="3" stroke-miterlimit="10" x1="224.265" y1="-32.915" x2="330.737" y2="-32.915"/>
	<ellipse fill="#58595B" stroke="#4D4D4D" stroke-miterlimit="10" cx="360.078" cy="116.604" rx="10" ry="9.937"/>
	
		<radialGradient id="SVGID_18_" cx="362.4111" cy="111.937" r="9.0222" fx="366.3915" fy="110.3044" gradientUnits="userSpaceOnUse">
		<stop  offset="0" style="stop-color:#FFFFFF"/>
		<stop  offset="1" style="stop-color:#4C4C4C"/>
	</radialGradient>
	<ellipse fill="url(#SVGID_18_)" stroke="#4D4D4D" stroke-miterlimit="10" cx="360.078" cy="116.604" rx="7.5" ry="7.453"/>
	<line fill="none" stroke="#4D4D4D" stroke-width="3" stroke-miterlimit="10" x1="22.44" y1="243.957" x2="82.977" y2="365.523"/>
	
		<ellipse transform="matrix(0.368 -0.9298 0.9298 0.368 -212.1053 174.9205)" fill="#58595B" stroke="#4D4D4D" stroke-miterlimit="10" cx="22.625" cy="243.492" rx="10" ry="9.937"/>
	
		<radialGradient id="SVGID_19_" cx="58.5415" cy="391.9229" r="9.0227" fx="62.5221" fy="390.2902" gradientTransform="matrix(0.368 -0.9298 -0.9298 -0.368 370.6885 441.6982)" gradientUnits="userSpaceOnUse">
		<stop  offset="0" style="stop-color:#FFFFFF"/>
		<stop  offset="1" style="stop-color:#4C4C4C"/>
	</radialGradient>
	<path fill="url(#SVGID_19_)" stroke="#4D4D4D" stroke-miterlimit="10" d="M25.385,236.518c3.827,1.515,5.694,5.865,4.17,9.717
		s-5.864,5.745-9.69,4.23c-3.827-1.515-5.694-5.865-4.17-9.716C17.219,236.897,21.558,235.003,25.385,236.518z"/>
	<line fill="none" stroke="#4D4D4D" stroke-width="3" stroke-miterlimit="10" x1="1005.078" y1="76.604" x2="823.078" y2="-126"/>
	<line fill="none" stroke="#4D4D4D" stroke-width="3" stroke-miterlimit="10" x1="822.078" y1="-126" x2="928.55" y2="-126"/>
	<ellipse fill="#58595B" stroke="#4D4D4D" stroke-miterlimit="10" cx="1005.578" cy="76.604" rx="10" ry="9.937"/>
	
		<radialGradient id="SVGID_20_" cx="1007.9106" cy="71.937" r="9.0224" fx="1011.8911" fy="70.3044" gradientUnits="userSpaceOnUse">
		<stop  offset="0" style="stop-color:#FFFFFF"/>
		<stop  offset="1" style="stop-color:#4C4C4C"/>
	</radialGradient>
	<ellipse fill="url(#SVGID_20_)" stroke="#4D4D4D" stroke-miterlimit="10" cx="1005.578" cy="76.604" rx="7.5" ry="7.453"/>
	<line fill="none" stroke="#4D4D4D" stroke-width="3" stroke-miterlimit="10" x1="1540.078" y1="91.604" x2="1358.078" y2="-111"/>
	<line fill="none" stroke="#4D4D4D" stroke-width="3" stroke-miterlimit="10" x1="1357.078" y1="-111" x2="1463.55" y2="-111"/>
	<ellipse fill="#58595B" stroke="#4D4D4D" stroke-miterlimit="10" cx="1540.578" cy="91.604" rx="10" ry="9.937"/>
	
		<radialGradient id="SVGID_21_" cx="1542.9106" cy="86.937" r="9.0224" fx="1546.8911" fy="85.3044" gradientUnits="userSpaceOnUse">
		<stop  offset="0" style="stop-color:#FFFFFF"/>
		<stop  offset="1" style="stop-color:#4C4C4C"/>
	</radialGradient>
	<ellipse fill="url(#SVGID_21_)" stroke="#4D4D4D" stroke-miterlimit="10" cx="1540.578" cy="91.604" rx="7.5" ry="7.453"/>
	<line fill="none" stroke="#4D4D4D" stroke-width="3" stroke-miterlimit="10" x1="82.324" y1="365.523" x2="158.176" y2="365.523"/>
	
		<line fill="none" stroke="#4D4D4D" stroke-width="3" stroke-miterlimit="10" x1="1297.441" y1="243.957" x2="1357.977" y2="365.523"/>
	
		<ellipse transform="matrix(0.368 -0.9298 0.9298 0.368 593.7297 1360.4741)" fill="#58595B" stroke="#4D4D4D" stroke-miterlimit="10" cx="1297.625" cy="243.492" rx="10" ry="9.937"/>
	
		<radialGradient id="SVGID_22_" cx="527.7637" cy="-793.6289" r="9.0221" fx="531.744" fy="-795.2615" gradientTransform="matrix(0.368 -0.9298 -0.9298 -0.368 370.6885 441.6982)" gradientUnits="userSpaceOnUse">
		<stop  offset="0" style="stop-color:#FFFFFF"/>
		<stop  offset="1" style="stop-color:#4C4C4C"/>
	</radialGradient>
	<path fill="url(#SVGID_22_)" stroke="#4D4D4D" stroke-miterlimit="10" d="M1300.384,236.518c3.827,1.515,5.695,5.865,4.17,9.717
		c-1.523,3.852-5.863,5.745-9.689,4.23c-3.828-1.515-5.695-5.865-4.17-9.716C1292.218,236.897,1296.558,235.003,1300.384,236.518z"
		/>
	
		<line fill="none" stroke="#4D4D4D" stroke-width="3" stroke-miterlimit="10" x1="1357.324" y1="365.523" x2="1433.176" y2="365.523"/>
	
		<line fill="none" stroke="#4D4D4D" stroke-width="3" stroke-miterlimit="10" x1="1835.25" y1="318.591" x2="1764.535" y2="460.935"/>
	
		<ellipse transform="matrix(-0.368 -0.9298 0.9298 -0.368 2215.4231 2142.8406)" fill="#58595B" stroke="#4D4D4D" stroke-miterlimit="10" cx="1835.978" cy="318.486" rx="10" ry="9.937"/>
	
		<radialGradient id="SVGID_23_" cx="663.4775" cy="-1340.314" r="9.0222" fx="667.4579" fy="-1341.9465" gradientTransform="matrix(-0.368 -0.9298 0.9298 -0.368 3321.1641 441.6982)" gradientUnits="userSpaceOnUse">
		<stop  offset="0" style="stop-color:#FFFFFF"/>
		<stop  offset="1" style="stop-color:#4C4C4C"/>
	</radialGradient>
	<path fill="url(#SVGID_23_)" stroke="#4D4D4D" stroke-miterlimit="10" d="M1833.218,311.512c-3.827,1.515-5.695,5.865-4.17,9.717
		c1.523,3.852,5.863,5.745,9.689,4.23c3.828-1.515,5.695-5.865,4.17-9.716C1841.384,311.892,1837.044,309.997,1833.218,311.512z"/>
	
		<line fill="none" stroke="#4D4D4D" stroke-width="3" stroke-miterlimit="10" x1="1765.779" y1="460.518" x2="1689.926" y2="460.518"/>
	<line fill="none" stroke="#4D4D4D" stroke-width="3" stroke-miterlimit="10" x1="616.94" y1="258.957" x2="677.477" y2="380.523"/>
	
		<ellipse transform="matrix(0.368 -0.9298 0.9298 0.368 149.6641 737.1788)" fill="#58595B" stroke="#4D4D4D" stroke-miterlimit="10" cx="617.125" cy="258.492" rx="10" ry="9.937"/>
	
		<radialGradient id="SVGID_24_" cx="263.3799" cy="-166.3901" r="9.023" fx="267.3606" fy="-168.0229" gradientTransform="matrix(0.368 -0.9298 -0.9298 -0.368 370.6885 441.6982)" gradientUnits="userSpaceOnUse">
		<stop  offset="0" style="stop-color:#FFFFFF"/>
		<stop  offset="1" style="stop-color:#4C4C4C"/>
	</radialGradient>
	<path fill="url(#SVGID_24_)" stroke="#4D4D4D" stroke-miterlimit="10" d="M619.885,251.518c3.827,1.515,5.694,5.865,4.17,9.717
		s-5.864,5.745-9.69,4.23c-3.827-1.515-5.694-5.865-4.17-9.716C611.719,251.897,616.058,250.003,619.885,251.518z"/>
	
		<line fill="none" stroke="#4D4D4D" stroke-width="3" stroke-miterlimit="10" x1="676.824" y1="380.523" x2="857.578" y2="380.523"/>
	<line fill="none" stroke="#4D4D4D" stroke-width="3" stroke-miterlimit="10" x1="361.94" y1="248.957" x2="457.25" y2="441.762"/>
	
		<ellipse transform="matrix(0.368 -0.9298 0.9298 0.368 -2.1946 493.7546)" fill="#58595B" stroke="#4D4D4D" stroke-miterlimit="10" cx="362.125" cy="248.492" rx="10" ry="9.937"/>
	
		<radialGradient id="SVGID_25_" cx="178.8345" cy="74.4009" r="9.0224" fx="182.8149" fy="72.7683" gradientTransform="matrix(0.368 -0.9298 -0.9298 -0.368 370.6885 441.6982)" gradientUnits="userSpaceOnUse">
		<stop  offset="0" style="stop-color:#FFFFFF"/>
		<stop  offset="1" style="stop-color:#4C4C4C"/>
	</radialGradient>
	<path fill="url(#SVGID_25_)" stroke="#4D4D4D" stroke-miterlimit="10" d="M364.885,241.518c3.827,1.515,5.694,5.865,4.17,9.717
		s-5.864,5.745-9.69,4.23c-3.827-1.515-5.694-5.865-4.17-9.716C356.719,241.897,361.058,240.003,364.885,241.518z"/>
	<line fill="none" stroke="#4D4D4D" stroke-width="3" stroke-miterlimit="10" x1="456.25" y1="441.762" x2="532.102" y2="441.762"/>
</g>
</svg>
