<?xml version="1.0" encoding="utf-8"?>
<!-- Generator: Adobe Illustrator 16.2.0, SVG Export Plug-In . SVG Version: 6.00 Build 0)  -->
<!DOCTYPE svg PUBLIC "-//W3C//DTD SVG 1.1//EN" "http://www.w3.org/Graphics/SVG/1.1/DTD/svg11.dtd">
<svg version="1.1" xmlns="http://www.w3.org/2000/svg" xmlns:xlink="http://www.w3.org/1999/xlink" x="0px" y="0px"
	 width="1926.156px" height="616px" viewBox="0 0 1926.156 616" enable-background="new 0 0 1926.156 616" xml:space="preserve">
<g id="Layer_1">
	<g id="Layer_1_1_">
		<g id="academic_x5F_graph">
			
				<linearGradient id="SVGID_1_" gradientUnits="userSpaceOnUse" x1="564.6489" y1="-725.6719" x2="564.6489" y2="-675.1578" gradientTransform="matrix(1 0 0 -1 -527 -310)">
				<stop  offset="0" style="stop-color:#CCCCCC"/>
				<stop  offset="1" style="stop-color:#3D3D3D"/>
			</linearGradient>
			<polygon fill="url(#SVGID_1_)" points="0,349.129 0,397.662 75.299,375.025 75.299,343.695 6.25,343.695 			"/>
			
				<linearGradient id="SVGID_2_" gradientUnits="userSpaceOnUse" x1="791.4751" y1="-645.752" x2="791.4751" y2="-702.1851" gradientTransform="matrix(1 0 0 -1 -527 -310)">
				<stop  offset="0" style="stop-color:#2A3344"/>
				<stop  offset="1" style="stop-color:#37626D"/>
			</linearGradient>
			<polygon fill="url(#SVGID_2_)" points="75.299,375.025 193.3,388.246 309.25,394.764 386.1,412.15 434.05,420.842 
				457.25,340.436 71.699,334.643 			"/>
			
				<linearGradient id="SVGID_3_" gradientUnits="userSpaceOnUse" x1="1710.9023" y1="-871.8438" x2="1710.9023" y2="-647.5977" gradientTransform="matrix(1 0 0 -1 -527 -310)">
				<stop  offset="0" style="stop-color:#CCCCCC"/>
				<stop  offset="1" style="stop-color:#3D3D3D"/>
			</linearGradient>
			<polygon fill="url(#SVGID_3_)" points="1921.625,388.117 1926.156,349.969 455.451,344.256 441.648,393.338 578.4,486.039 
				700.944,421.577 806.168,455.622 988.801,441.819 1184.622,502.603 1297.654,484.683 1410.314,432.084 1446,441.819 
				1550.578,465.619 1628.616,441.819 1748.355,412.559 			"/>
			
				<linearGradient id="SVGID_4_" gradientUnits="userSpaceOnUse" x1="1876.9746" y1="-658.0098" x2="1876.9746" y2="-727.8217" gradientTransform="matrix(1 0 0 -1 -527 -310)">
				<stop  offset="0" style="stop-color:#2A3344"/>
				<stop  offset="1" style="stop-color:#37626D"/>
			</linearGradient>
			<path fill="url(#SVGID_4_)" d="M1253.701,340.436l23.549,63.744c0,0,47,7.246,50,7.975c3,0.725,93,9.416,93,9.416l26-78.232
				L1253.701,340.436z"/>
			
				<linearGradient id="SVGID_5_" gradientUnits="userSpaceOnUse" x1="2256.6699" y1="-625.0684" x2="2256.6699" y2="-766.6558" gradientTransform="matrix(1 0 0 -1 -527 -310)">
				<stop  offset="0" style="stop-color:#2A3344"/>
				<stop  offset="1" style="stop-color:#37626D"/>
			</linearGradient>
			<polygon fill="url(#SVGID_5_)" points="1567.675,340.436 1596.66,395.338 1639.3,408.18 1687.25,435.174 1721.564,465.67 
				1819.556,474.67 1860.96,484.67 1891.667,340.436 			"/>
		</g>
		<g id="work_x5F_graph">
			
				<linearGradient id="SVGID_6_" gradientUnits="userSpaceOnUse" x1="316.936" y1="43.2637" x2="316.7896" y2="157.0033" gradientTransform="matrix(1 0 0 1 77 124)">
				<stop  offset="0" style="stop-color:#D267A8"/>
				<stop  offset="1" style="stop-color:#511E62"/>
			</linearGradient>
			<polygon fill="url(#SVGID_6_)" points="54.849,289.362 76.649,268.672 213.25,257.848 434.05,223.072 545.25,168.01 
				732.712,287.564 			"/>
			
				<linearGradient id="SVGID_7_" gradientUnits="userSpaceOnUse" x1="959.1777" y1="1.1006" x2="959.0078" y2="197.7701" gradientTransform="matrix(1 0 0 1 77 124)">
				<stop  offset="0.2624" style="stop-color:#BBD86B"/>
				<stop  offset="0.7786" style="stop-color:#3EB549"/>
			</linearGradient>
			<polygon fill="url(#SVGID_7_)" points="698.915,281.08 723.25,268.066 759.25,256.894 853.25,196.991 916.05,186.848 
				1012.451,186.848 1133.25,153.521 1176.25,137.583 1329.25,154.971 1398.05,208.583 1440.603,276.398 1474.797,303.49 
				597.25,303.49 			"/>
			
				<linearGradient id="SVGID_8_" gradientUnits="userSpaceOnUse" x1="1575.3613" y1="27.1133" x2="1579.9249" y2="192.7014" gradientTransform="matrix(1 0 0 1 77 124)">
				<stop  offset="0" style="stop-color:#D67B39"/>
				<stop  offset="1" style="stop-color:#6F000A"/>
			</linearGradient>
			<polygon fill="url(#SVGID_8_)" points="1434.683,275.139 1479.148,220.537 1562.25,168.01 1657.75,237.562 1735.701,267.9 
				1846.045,269.549 1877.269,289.362 1446,289.362 			"/>
		</g>
		<g id="border">
			<polygon fill="#182744" points="0.36,273.583 1928.86,273.583 1928.5,363.577 0,363.577 			"/>
		</g>
		<g id="main_x5F_timeline">
			<rect y="281.083" fill="#1F3567" width="96.9" height="74.996"/>
			<rect x="96.4" y="281.083" fill="#254472" width="96.9" height="74.996"/>
			<rect x="192.8" y="281.083" fill="#1F3567" width="96.9" height="74.996"/>
			<rect x="289.2" y="281.083" fill="#254472" width="96.896" height="74.996"/>
			<rect x="385.6" y="281.083" fill="#1F3567" width="96.9" height="74.996"/>
			<rect x="482" y="281.083" fill="#254472" width="96.9" height="74.996"/>
			<rect x="578.4" y="281.083" fill="#1F3567" width="96.896" height="74.996"/>
			<rect x="674.8" y="281.083" fill="#254472" width="96.9" height="74.996"/>
			<rect x="771.2" y="281.083" fill="#1F3567" width="96.896" height="74.996"/>
			<rect x="867.6" y="281.083" fill="#254472" width="96.9" height="74.996"/>
			<rect x="964" y="281.083" fill="#1F3567" width="96.9" height="74.996"/>
			<rect x="1060.4" y="281.083" fill="#254472" width="96.896" height="74.996"/>
			<rect x="1156.8" y="281.083" fill="#1F3567" width="96.9" height="74.996"/>
			<rect x="1253.201" y="281.083" fill="#254472" width="96.896" height="74.996"/>
			<rect x="1349.599" y="281.083" fill="#1F3567" width="96.9" height="74.996"/>
			<rect x="1446" y="281.083" fill="#254472" width="96.9" height="74.996"/>
			<rect x="1542.4" y="281.083" fill="#1F3567" width="96.896" height="74.996"/>
			<rect x="1638.8" y="281.083" fill="#254472" width="96.9" height="74.996"/>
			<rect x="1735.201" y="281.083" fill="#1F3567" width="96.896" height="74.996"/>
			<rect x="1831.599" y="281.083" fill="#254472" width="96.9" height="74.996"/>
		</g>
		<g id="text">
			<text transform="matrix(1 0 0 1 19.75 332.5801)" fill="#E6E7E8" font-family="'Verdana'" font-size="36">‘94</text>
			<text transform="matrix(1 0 0 1 116.25 332.5801)" fill="#E6E7E8" font-family="'Verdana'" font-size="36">‘95</text>
			<text transform="matrix(1 0 0 1 213.25 332.5801)" fill="#E6E7E8" font-family="'Verdana'" font-size="36">‘96</text>
			<text transform="matrix(1 0 0 1 309.25 332.5801)" fill="#E6E7E8" font-family="'Verdana'" font-size="36">‘97</text>
			<text transform="matrix(1 0 0 1 405.25 332.5801)" fill="#E6E7E8" font-family="'Verdana'" font-size="36">‘98</text>
			<text transform="matrix(1 0 0 1 501.25 332.5801)" fill="#E6E7E8" font-family="'Verdana'" font-size="36">‘99</text>
			<text transform="matrix(1 0 0 1 597.25 332.5801)" fill="#E6E7E8" font-family="'Verdana'" font-size="36">‘00</text>
			<text transform="matrix(1 0 0 1 693.75 332.5801)" fill="#E6E7E8" font-family="'Verdana'" font-size="36">‘01</text>
			<text transform="matrix(1 0 0 1 790.75 332.5801)" fill="#E6E7E8" font-family="'Verdana'" font-size="36">‘02</text>
			<text transform="matrix(1 0 0 1 887.25 332.5801)" fill="#E6E7E8" font-family="'Verdana'" font-size="36">‘03</text>
			<text transform="matrix(1 0 0 1 983.25 332.5801)" fill="#E6E7E8" font-family="'Verdana'" font-size="36">‘04</text>
			<text transform="matrix(1 0 0 1 1079.75 332.5801)" fill="#E6E7E8" font-family="'Verdana'" font-size="36">‘05</text>
			<text transform="matrix(1 0 0 1 1176.25 332.5801)" fill="#E6E7E8" font-family="'Verdana'" font-size="36">‘06</text>
			<text transform="matrix(1 0 0 1 1272.75 332.5801)" fill="#E6E7E8" font-family="'Verdana'" font-size="36">‘07</text>
			<text transform="matrix(1 0 0 1 1369.25 332.5801)" fill="#E6E7E8" font-family="'Verdana'" font-size="36">‘08</text>
			<text transform="matrix(1 0 0 1 1464.75 332.5801)" fill="#E6E7E8" font-family="'Verdana'" font-size="36">‘09</text>
			<text transform="matrix(1 0 0 1 1562.25 332.5801)" fill="#E6E7E8" font-family="'Verdana'" font-size="36">‘10</text>
			<text transform="matrix(1 0 0 1 1657.75 332.5801)" fill="#E6E7E8" font-family="'Verdana'" font-size="36">‘11</text>
			<text transform="matrix(1 0 0 1 1755.25 332.5801)" fill="#E6E7E8" font-family="'Verdana'" font-size="36">‘12</text>
			<text transform="matrix(1 0 0 1 1852.25 332.5801)" fill="#E6E7E8" font-family="'Verdana'" font-size="36">‘13</text>
		</g>
	</g>
	<g id="Layer_2">
		<line fill="none" stroke="#CADFEA" stroke-width="3" stroke-miterlimit="10" x1="337.149" y1="247.945" x2="191.66" y2="87.45"/>
		<line fill="none" stroke="#CADFEA" stroke-width="3" stroke-miterlimit="10" x1="190.66" y1="87.45" x2="300.732" y2="87.45"/>
		<path fill="none" stroke="#EFF2F4" stroke-width="3" stroke-miterlimit="10" d="M334.473,254.969"/>
		<line fill="none" stroke="#CADFEA" stroke-width="3" stroke-miterlimit="10" x1="22.44" y1="381.031" x2="82.977" y2="502.59"/>
		
			<line fill="none" stroke="#CADFEA" stroke-width="3" stroke-miterlimit="10" x1="1005.078" y1="213.687" x2="823.078" y2="11.083"/>
		<line fill="none" stroke="#CADFEA" stroke-width="3" stroke-miterlimit="10" x1="822.078" y1="11.083" x2="928.55" y2="11.083"/>
		
			<line fill="none" stroke="#CADFEA" stroke-width="3" stroke-miterlimit="10" x1="1486.084" y1="239.487" x2="1304.084" y2="36.883"/>
		
			<line fill="none" stroke="#CADFEA" stroke-width="3" stroke-miterlimit="10" x1="1303.084" y1="36.883" x2="1409.556" y2="36.883"/>
		<line fill="none" stroke="#CADFEA" stroke-width="3" stroke-miterlimit="10" x1="82.324" y1="502.59" x2="158.176" y2="502.59"/>
		
			<line fill="none" stroke="#CADFEA" stroke-width="3" stroke-miterlimit="10" x1="1297.441" y1="381.031" x2="1357.977" y2="502.59"/>
		
			<line fill="none" stroke="#CADFEA" stroke-width="3" stroke-miterlimit="10" x1="1357.324" y1="502.59" x2="1433.176" y2="502.59"/>
		
			<line fill="none" stroke="#CADFEA" stroke-width="3" stroke-miterlimit="10" x1="1835.25" y1="455.658" x2="1764.535" y2="598.002"/>
		
			<line fill="none" stroke="#CADFEA" stroke-width="3" stroke-miterlimit="10" x1="1765.779" y1="597.584" x2="1705.903" y2="597.584"/>
		
			<line fill="none" stroke="#CADFEA" stroke-width="3" stroke-miterlimit="10" x1="404.06" y1="389.631" x2="531.771" y2="539.232"/>
		
			<line fill="none" stroke="#CADFEA" stroke-width="3" stroke-miterlimit="10" x1="530.771" y1="539.232" x2="628.224" y2="539.232"/>
	</g>
	<rect x="776.448" y="390.621" fill="none" width="422.011" height="26"/>
	<text transform="matrix(1 0 0 1 776.4492 394.4609)" fill="#D3CDCD" font-family="'Verdana'" font-size="19">*On the Job Learning Experience</text>
</g>
<g id="Layer_2_1_">
	
		<rect x="337.149" y="247.768" fill="none" stroke="#CADFEA" stroke-width="3" stroke-miterlimit="10" width="6.468" height="6.338"/>
	
		<rect x="1005.315" y="213.928" fill="none" stroke="#CADFEA" stroke-width="3" stroke-miterlimit="10" width="6.468" height="6.338"/>
	
		<rect x="1486.582" y="239.85" fill="none" stroke="#CADFEA" stroke-width="3" stroke-miterlimit="10" width="6.468" height="6.338"/>
	
		<rect x="1835.388" y="448.64" fill="none" stroke="#CADFEA" stroke-width="3" stroke-miterlimit="10" width="6.468" height="6.337"/>
	
		<rect x="1291.122" y="374.493" fill="none" stroke="#CADFEA" stroke-width="3" stroke-miterlimit="10" width="6.468" height="6.337"/>
	
		<rect x="397.62" y="382.773" fill="none" stroke="#CADFEA" stroke-width="3" stroke-miterlimit="10" width="6.469" height="6.337"/>
	
		<rect x="16.011" y="374.133" fill="none" stroke="#CADFEA" stroke-width="3" stroke-miterlimit="10" width="6.469" height="6.337"/>
</g>
</svg>
